<svg width="435" height="496" viewBox="0 0 435 496" fill="none" xmlns="http://www.w3.org/2000/svg">
<path d="M186.407 0.676636C152.355 0.676636 124.494 28.5372 124.494 62.5891H62.5819C28.53 62.5891 0.669434 90.4496 0.669434 124.501H434.056C434.056 90.4496 406.196 62.5891 372.144 62.5891H310.232C310.232 28.5372 282.371 0.676636 248.319 0.676636H186.407ZM62.5819 186.414V484.213C62.5819 491.023 67.5348 495.976 74.3452 495.976H361C367.81 495.976 372.763 491.023 372.763 484.213V186.414H310.851V403.107C310.851 420.443 297.23 434.064 279.894 434.064C262.559 434.064 248.938 420.443 248.938 403.107V186.414H187.026V403.107C187.026 420.443 173.405 434.064 156.07 434.064C138.734 434.064 125.113 420.443 125.113 403.107V186.414H63.201H62.5819Z" fill="white"/>
</svg>
