<svg width="434" height="698" viewBox="0 0 434 698" fill="none" xmlns="http://www.w3.org/2000/svg">
<path d="M215.385 0C141.265 0 86.3286 22.6722 51.4483 57.5524C16.5681 92.4326 4.36003 136.033 0 169.169L87.2006 180.505C90.6886 158.705 97.6647 136.905 114.233 120.337C130.801 103.769 156.961 87.2006 215.385 87.2006C272.938 87.2006 304.33 101.153 321.77 116.849C339.21 132.545 346.186 151.729 346.186 174.401C346.186 246.778 316.538 266.834 272.938 305.202C229.338 343.57 171.785 399.379 171.785 501.403V523.204H258.986V501.403C258.986 429.027 286.018 408.971 329.618 370.603C373.219 332.234 433.387 276.426 433.387 174.401C433.387 132.545 418.563 85.4566 381.939 51.4483C344.442 17.4401 288.634 0 215.385 0ZM171.785 610.404V697.605H258.986V610.404H171.785Z" fill="white"/>
</svg>
